# xmcd
#
# Track frame offsets:
# 182
# 11645
# 23727
# 36180
# 47772
# 56397
# 72422
# 86697
# 97305
# 107547
# 119352
# 130927
# 143012
# 151775
# 163700
# 176045
#
# Disc length: 2483 seconds
#
#
# Revision: 0
# Processed by: cddbd v1.5.1PL0 Copyright (c) Steve Scherf et al.
# Submitted via: FreeRIP 2.941 
#
DISCID=d409b110
DTITLE=Various Artist - Cajun Rock
DYEAR=1900
DGENRE=Folklore
TTITLE0=Rufus Thibodeaux - fais do do
TTITLE1=Eddy Raven - la belle de la Louisianne
TTITLE2=Happy Fats - les vauves de la coules
TTITLE3=Cajun Born - la maison a deux portes
TTITLE4=Rufus Thibodeaux - grand mamou
TTITLE5=Michael Douchet - la valse de KLFY
TTITLE6=Vin Bruce - dans la louisianne
TTITLE7=Eddy Raven - alligator bayou
TTITLE8=Rufus Thibodeaux - lake arthur stomp
TTITLE9=Cajun Born - ma belle evangeline
TTITLE10=Blackie Forestier - bayou sam
TTITLE11=Cajun Born - tu es la mienee pour toujours
TTITLE12=Rufus Thibodeaux - la valse de quebec
TTITLE13=Blacke Forestier - cotton fields
TTITLE14=Nathan Abshire - le blues francais
TTITLE15=Aldus Roger - lafayette two-step
EXTD=
EXTT0=
EXTT1=
EXTT2=
EXTT3=
EXTT4=
EXTT5=
EXTT6=
EXTT7=
EXTT8=
EXTT9=
EXTT10=
EXTT11=
EXTT12=
EXTT13=
EXTT14=
EXTT15=
PLAYORDER=
